Coordinates
version=1
nRows=24
nColumns=22
inDegrees=yes

Units are S.I. units (second, meters, Newtons, ...)
If the header above contains a line with 'inDegrees', this indicates whether rotational values are in degrees (yes) or radians (no).

endheader
time	pelvis_tilt	pelvis_list	pelvis_rotation	pelvis_tx	pelvis_ty	pelvis_tz	hip_flexion_r	hip_adduction_r	hip_rotation_r	knee_angle_r	ankle_angle_r	subtalar_angle_r	hip_flexion_l	hip_adduction_l	hip_rotation_l	knee_angle_l	ankle_angle_l	subtalar_angle_l	lumbar_extension	lumbar_bending	lumbar_rotation
      2.79000000	     -6.73856447	     -0.27454787	    -29.16197788	     -0.19018678	      0.85130119	     -0.70102745	     -4.84667800	      4.85074929	     32.00860036	    -23.06012699	     22.35475661	     -7.10416359	     29.84800144	    -12.89301298	     16.62193118	    -18.87658508	      7.57403287	     21.46854541	     -0.26925543	      5.48287579	     15.38091274
      2.80000000	     -6.51054342	      0.12985443	    -29.84552309	     -0.18102393	      0.85099351	     -0.70022754	     -4.59921681	      4.39515869	     32.03503016	    -24.81001520	     21.90448771	     -6.30329407	     29.66864372	    -12.26372772	     16.35946688	    -20.08923568	      7.05213113	     22.07004497	     -0.33523773	      5.02610668	     14.90915735
      2.81000000	     -6.18220652	      0.52137703	    -30.53008148	     -0.17200511	      0.85098236	     -0.69915584	     -4.26659294	      3.98746288	     31.85140551	    -26.88300681	     21.18520077	     -5.29470542	     29.38650233	    -11.68226151	     15.79332894	    -21.27976180	      6.78650890	     22.58598820	     -0.50807199	      4.48454035	     14.43096578
      2.82000000	     -5.76464544	      0.89692885	    -31.22064849	     -0.16319009	      0.85126694	     -0.69783072	     -3.81766960	      3.62666152	     31.41042173	    -29.28955308	     20.18696477	     -4.13269567	     28.99560872	    -11.14474249	     14.97846745	    -22.41803157	      6.75334644	     22.90223784	     -0.78321065	      3.86791550	     13.96889521
      2.83000000	     -5.28642526	      1.25746711	    -31.92241731	     -0.15460394	      0.85182034	     -0.69627769	     -3.19813836	      3.30782975	     30.65677036	    -32.03503051	     18.85283938	     -2.84368595	     28.48810810	    -10.64508912	     14.00667093	    -23.44585168	      6.96425459	     22.97263493	     -1.12897483	      3.19683831	     13.52280814
      2.84000000	     -4.78571006	      1.61380899	    -32.64175277	     -0.14625660	      0.85258654	     -0.69456001	     -2.34525979	      3.00918854	     29.55716488	    -35.10265074	     17.15896162	     -1.53907270	     27.88086781	    -10.16526424	     12.97027311	    -24.32349455	      7.37401500	     22.78264178	     -1.50025665	      2.49466712	     13.09652380
      2.85000000	     -4.30152637	      1.97016318	    -33.39243848	     -0.13816686	      0.85350085	     -0.69273265	     -1.20754618	      2.70943507	     28.11729589	    -38.45524732	     15.11940258	     -0.36314387	     27.20188442	     -9.70106075	     11.92888787	    -25.03226844	      7.93009932	     22.35284658	     -1.85559015	      1.79429532	     12.70098137
      2.86000000	     -3.86861259	      2.32655230	    -34.18941885	     -0.13035399	      0.85451239	     -0.69085943	      0.24586191	      2.38808574	     26.38703835	    -42.03388461	     12.76654507	      0.53447577	     26.48154342	     -9.25504715	     10.93174763	    -25.56325096	      8.54992135	     21.71328679	     -2.16259959	      1.13204375	     12.35786419
      2.87000000	     -3.50707484	      2.68362456	    -35.03893477	     -0.12280886	      0.85554967	     -0.68899353	      2.01459248	      2.01627569	     24.41752642	    -45.76764340	     10.23625706	      0.95393990	     25.76655622	     -8.83189179	      9.95375813	    -25.95895275	      9.19598689	     20.92738191	     -2.40128062	      0.53455658	     12.05351280
      2.88000000	     -3.22709179	      3.04165914	    -35.95518133	     -0.11553483	      0.85658072	     -0.68715735	      4.06983302	      1.57729609	     22.31133049	    -49.57232694	      7.65397772	      0.82419987	     25.06908496	     -8.43929525	      8.99955569	    -26.22276574	      9.82706638	     20.00477093	     -2.56116913	      0.01845041	     11.80789011
      2.89000000	     -3.01720213	      3.39719953	    -36.93916357	     -0.10851883	      0.85759693	     -0.68537260	      6.34333559	      1.06401163	     20.17347580	    -53.36160979	      5.17203755	      0.12105531	     24.39132125	     -8.07591130	      8.05846145	    -26.37743828	     10.43316794	     18.99720347	     -2.65652816	     -0.41148134	     11.61132170
      2.90000000	     -2.85660348	      3.73568032	    -37.98490598	     -0.10172434	      0.85863667	     -0.68361894	      8.73729429	      0.48254012	     18.07657911	    -57.03388856	      2.93565964	     -1.03755972	     23.70923691	     -7.74922563	      7.10348443	    -26.42535189	     10.97658452	     17.95111950	     -2.71316950	     -0.75340711	     11.45914473
      2.91000000	     -2.71904726	      4.05205383	    -39.07589428	     -0.09515082	      0.85971686	     -0.68190295	     11.16619361	     -0.14095062	     16.10655463	    -60.52836638	      1.09034431	     -2.41907022	     23.01394616	     -7.44409342	      6.14845326	    -26.39234046	     11.45872490	     16.91406183	     -2.76353068	     -1.02147145	     11.32330665
      2.92000000	     -2.60231627	      4.33744202	    -40.18491500	     -0.08874658	      0.86084843	     -0.68016960	     13.55855346	     -0.77279506	     14.27147642	    -63.77022824	     -0.23571877	     -3.75084959	     22.29463271	     -7.16671127	      5.20369839	    -26.26955878	     11.90985812	     15.93133408	     -2.80727477	     -1.21715703	     11.18531260
      2.93000000	     -2.49041578	      4.56762760	    -41.28406900	     -0.08248797	      0.86208035	     -0.67837902	     15.83632676	     -1.36654113	     12.56698608	    -66.71343650	     -0.99252801	     -4.94104175	     21.53574410	     -6.92511844	      4.26562238	    -26.07760103	     12.30009013	     15.01090405	     -2.87731858	     -1.33832805	     11.00419341
      2.94000000	     -2.39153312	      4.72094250	    -42.34771857	     -0.07639354	      0.86342171	     -0.67648063	     17.95931950	     -1.86769596	     10.95455269	    -69.32251194	     -1.20560218	     -5.97082595	     20.73681785	     -6.73630894	      3.39367945	    -25.83181060	     12.63432633	     14.15957106	     -2.98545305	     -1.38066129	     10.78939543
      2.95000000	     -2.31505640	      4.79014449	    -43.35234114	     -0.07042613	      0.86486512	     -0.67441729	     19.90301820	     -2.23896083	      9.40130714	    -71.58057403	     -0.96364594	     -6.84038425	     19.90045476	     -6.61534095	      2.56559840	    -25.53928617	     12.93178666	     13.40478060	     -3.12500101	     -1.33723243	     10.50256088
      2.96000000	     -2.27723940	      4.75770607	    -44.28744640	     -0.06460453	      0.86640143	     -0.67212372	     21.64486865	     -2.42526867	      7.88183282	    -73.46546640	     -0.37430716	     -7.57109021	     19.02091841	     -6.58886584	      1.81302147	    -25.20167499	     13.23144789	     12.75323199	     -3.29656568	     -1.19590466	     10.14748366
      2.97000000	     -2.28789032	      4.64683507	    -45.15888729	     -0.05896711	      0.86797021	     -0.66956862	     23.21935255	     -2.41043690	      6.40484881	    -74.99331186	      0.37588711	     -8.04729596	     18.12977712	     -6.65747251	      1.09341297	    -24.84685235	     13.48803020	     12.25392930	     -3.47634789	     -0.97789606	      9.74821907
      2.98000000	     -2.35986774	      4.36690787	    -45.92803323	     -0.05345970	      0.86965687	     -0.66674937	     24.53391267	     -2.12912943	      4.88842322	    -76.11788704	      1.10740322	     -8.38038134	     17.18054760	     -6.88826915	      0.46703025	    -24.49980604	     13.79371723	     11.76021965	     -3.73247312	     -0.60031833	      9.27550413
      2.99000000	     -2.45741071	      4.04910344	    -46.64530576	     -0.04813510	      0.87130247	     -0.66365897	     25.71325507	     -1.68593819	      3.43459925	    -76.91380073	      1.74265066	     -8.35916507	     16.21341527	     -7.17154195	     -0.14929102	    -24.12998358	     14.08522705	     11.45012816	     -3.98754500	     -0.20364752	      8.76992156
      3.00000000	     -2.58588883	      3.67885861	    -47.31335090	     -0.04297819	      0.87290487	     -0.66030581	     26.75462035	     -1.07512871	      2.04103408	    -77.38343374	      2.24819045	     -7.98270149	     15.21787083	     -7.51899543	     -0.74465014	    -23.73914349	     14.38245083	     11.07872142	     -4.25008233	      0.23047536	      8.24268913
      3.01000000	     -2.74931934	      3.26554054	    -47.95528054	     -0.03800951	      0.87442667	     -0.65669790	     27.68421678	     -0.30556483	      0.73185947	    -77.54213956	      2.61051598	     -7.24517888	     14.20339722	     -7.93620011	     -1.35833625	    -23.33845817	     14.69043585	     10.82089532	     -4.51440645	      0.70114990	      7.71589242
      3.02000000	     -2.92567867	      2.84760370	    -48.58111159	     -0.03320384	      0.87581865	     -0.65288870	     28.53827060	      0.54555528	     -0.48143917	    -77.42570014	      2.88054760	     -6.23535649	     13.18412239	     -8.37319202	     -2.00715057	    -22.93458517	     15.00778048	     10.59930979	     -4.76911565	      1.16669618	      7.18824917
